<?xml version="1.0" encoding="UTF-8"?>
<svg id="Capa_2" data-name="Capa 2" xmlns="http://www.w3.org/2000/svg" viewBox="0 0 350.63 389.78">
  <defs>
    <style>
      .cls-1 {
        fill: #2e9b7b;
      }
    </style>
  </defs>
  <g id="Capa_1-2" data-name="Capa 1">
    <path class="cls-1" d="M350.63,166.79C350.63,78.54,281.73,6.08,194.89.38v-.38c-1.93,0-3.85.04-5.77.09-1.76-.05-3.52-.09-5.28-.09-45.85,0-87.43,18.59-117.61,48.64C25.65,84.38,0,136.69,0,194.89c0,107.46,87.43,194.89,194.89,194.89h5.31v-56.99c84.32-8.25,150.43-79.54,150.43-165.99ZM189.58,379.08c-99.16-2.82-178.96-84.36-178.96-184.19,0-19.66,3.11-38.61,8.84-56.39-1.58,9.2-2.41,18.65-2.41,28.29,0,91.97,74.82,166.79,166.79,166.79,1.92,0,3.83-.04,5.74-.11v45.61ZM183.84,322.97c-86.11,0-156.17-70.06-156.17-156.17,0-43.06,17.52-82.1,45.79-110.38,31.1-27.31,71.44-44.33,115.66-45.69,83.68,2.8,150.89,71.73,150.89,156.07s-70.06,156.17-156.17,156.17Z"/>
  </g>
</svg>