<?xml version="1.0" encoding="UTF-8"?>
<svg id="Capa_2" data-name="Capa 2" xmlns="http://www.w3.org/2000/svg" viewBox="0 0 1264.04 263.71">
  <defs>
    <style>
      .cls-1 {
        fill: #1a6855;
      }
    </style>
  </defs>
  <g id="Capa_1-2" data-name="Capa 1">
    <g>
      <path class="cls-1" d="M0,58.6h22.56l.88,30.77v174.34H0V58.6ZM73.25,208.04c-10.74,0-19.54-2.49-26.37-7.47-6.84-4.98-12.16-11.43-15.97-19.34-3.81-7.91-6.5-16.21-8.06-24.91-1.57-8.69-2.34-16.75-2.34-24.17,0-10.55.73-20.41,2.2-29.59,1.47-9.18,4.05-17.29,7.77-24.32,3.71-7.03,9.03-12.55,15.97-16.55,6.93-4,15.87-6.01,26.81-6.01,11.72,0,22.37,3.32,31.94,9.96,9.57,6.64,17.24,15.73,23,27.25,5.76,11.53,8.64,24.61,8.64,39.27s-2.93,27.69-8.79,39.12c-5.86,11.43-13.63,20.41-23.29,26.96-9.67,6.55-20.17,9.82-31.5,9.82ZM67.39,185.77c8.98,0,16.94-2.29,23.88-6.89,6.93-4.59,12.35-10.94,16.26-19.05,3.91-8.1,5.86-17.33,5.86-27.69,0-15.63-4.01-28.57-12.01-38.82-8.01-10.26-19.34-15.39-33.99-15.39-8.6,0-16.22,2.3-22.85,6.89-6.64,4.59-11.82,10.94-15.53,19.05-3.71,8.11-5.57,17.54-5.57,28.28,0,9.77,1.61,18.71,4.84,26.81,3.22,8.11,8.06,14.6,14.5,19.49,6.45,4.89,14.65,7.33,24.61,7.33Z"/>
      <path class="cls-1" d="M169.65,0h23.44v205.11h-23.44V0Z"/>
      <path class="cls-1" d="M337.84,157.93h21.98c-1.56,9.58-5.03,18.12-10.4,25.64-5.37,7.52-12.41,13.48-21.1,17.87-8.69,4.4-18.71,6.59-30.03,6.59-13.68,0-25.98-3.27-36.92-9.82-10.94-6.54-19.59-15.53-25.93-26.96-6.35-11.43-9.52-24.47-9.52-39.12s3.08-27.74,9.23-39.27c6.15-11.52,14.6-20.61,25.34-27.25,10.74-6.64,22.86-9.96,36.33-9.96,14.26,0,26.32,3.18,36.19,9.52,9.86,6.35,17.19,15.63,21.98,27.84,4.78,12.21,6.69,27.2,5.71,44.98h-111.34c.98,9.57,3.61,17.97,7.91,25.2,4.29,7.23,9.96,12.85,16.99,16.85,7.03,4.01,15.04,6.01,24.03,6.01,9.96,0,18.41-2.59,25.34-7.76,6.93-5.17,11.67-11.96,14.21-20.37ZM297.7,77.65c-12.12,0-22.27,3.51-30.47,10.55-8.2,7.03-13.68,16.6-16.41,28.71h85.85c-.78-12.89-4.94-22.66-12.45-29.3-7.52-6.64-16.36-9.96-26.52-9.96Z"/>
      <path class="cls-1" d="M390.87,58.6h23.44v146.51h-23.44V58.6ZM464.71,55.67c7.81,0,14.84,1.17,21.1,3.51,6.25,2.35,11.53,5.76,15.82,10.26,4.29,4.5,7.62,9.92,9.96,16.26,2.34,6.35,3.52,13.53,3.52,21.54v97.87h-23.44v-92.01c0-11.33-2.64-19.83-7.91-25.49-5.28-5.66-13.19-8.5-23.73-8.5-8.01,0-15.43,2.05-22.27,6.15-6.84,4.1-12.45,9.72-16.85,16.85-4.4,7.13-7.08,15.38-8.06,24.76l-.29-16.99c.98-8.21,2.98-15.63,6.01-22.27,3.03-6.64,6.83-12.35,11.43-17.14,4.59-4.78,9.86-8.45,15.82-10.99,5.96-2.54,12.26-3.81,18.9-3.81Z"/>
      <path class="cls-1" d="M616.78,208.04c-12.5,0-24.23-3.03-35.16-9.08-10.94-6.05-19.78-14.8-26.52-26.22-6.74-11.43-10.11-24.95-10.11-40.58s3.37-29.16,10.11-40.58c6.74-11.43,15.58-20.26,26.52-26.52,10.94-6.25,22.66-9.37,35.16-9.37s24.17,3.12,35.01,9.37c10.84,6.25,19.58,15.09,26.23,26.52,6.64,11.43,9.96,24.96,9.96,40.58s-3.32,29.15-9.96,40.58c-6.64,11.43-15.38,20.17-26.23,26.22-10.84,6.06-22.52,9.08-35.01,9.08ZM616.78,186.06c8.2,0,15.92-2.05,23.15-6.15,7.22-4.1,13.14-10.2,17.73-18.31,4.59-8.1,6.89-17.92,6.89-29.45s-2.3-21.34-6.89-29.45c-4.59-8.1-10.5-14.31-17.73-18.61-7.23-4.29-14.94-6.44-23.15-6.44s-15.97,2.1-23.3,6.3c-7.33,4.2-13.33,10.36-18.02,18.46-4.69,8.11-7.03,18.02-7.03,29.74s2.29,21.34,6.89,29.45c4.59,8.11,10.59,14.21,18.02,18.31,7.42,4.1,15.24,6.15,23.44,6.15Z"/>
      <path class="cls-1" d="M717.87,58.6h23.44v146.51h-23.44V58.6ZM791.71,55.67c7.81,0,14.84,1.17,21.1,3.51,6.25,2.35,11.53,5.76,15.82,10.26,4.29,4.5,7.62,9.92,9.96,16.26,2.34,6.35,3.52,13.53,3.52,21.54v97.87h-23.44v-92.01c0-11.33-2.64-19.83-7.91-25.49-5.28-5.66-13.19-8.5-23.73-8.5-8.01,0-15.43,2.05-22.27,6.15-6.84,4.1-12.45,9.72-16.85,16.85-4.4,7.13-7.08,15.38-8.06,24.76l-.29-16.99c.98-8.21,2.98-15.63,6.01-22.27,3.03-6.64,6.83-12.35,11.43-17.14,4.59-4.78,9.86-8.45,15.82-10.99,5.96-2.54,12.26-3.81,18.9-3.81ZM890.16,55.67c7.81,0,14.84,1.17,21.1,3.51,6.25,2.35,11.52,5.76,15.82,10.26,4.29,4.5,7.62,9.92,9.96,16.26,2.34,6.35,3.52,13.53,3.52,21.54v97.87h-23.44v-92.01c0-11.33-2.64-19.83-7.91-25.49-5.28-5.66-13.19-8.5-23.73-8.5-8.01,0-15.43,2.05-22.27,6.15-6.84,4.1-12.45,9.72-16.85,16.85-4.4,7.13-7.08,15.38-8.06,24.76l-.29-16.99c.98-8.21,2.98-15.63,6.01-22.27,3.03-6.64,6.83-12.35,11.43-17.14,4.59-4.78,9.86-8.45,15.82-10.99,5.96-2.54,12.26-3.81,18.9-3.81Z"/>
      <path class="cls-1" d="M1082.38,157.93h21.98c-1.57,9.58-5.03,18.12-10.4,25.64-5.37,7.52-12.41,13.48-21.1,17.87-8.69,4.4-18.71,6.59-30.03,6.59-13.67,0-25.98-3.27-36.92-9.82-10.94-6.54-19.59-15.53-25.93-26.96-6.35-11.43-9.52-24.47-9.52-39.12s3.08-27.74,9.23-39.27c6.15-11.52,14.6-20.61,25.34-27.25,10.74-6.64,22.86-9.96,36.33-9.96,14.26,0,26.32,3.18,36.19,9.52,9.86,6.35,17.19,15.63,21.98,27.84,4.78,12.21,6.69,27.2,5.71,44.98h-111.34c.97,9.57,3.61,17.97,7.91,25.2,4.29,7.23,9.96,12.85,17,16.85,7.03,4.01,15.04,6.01,24.03,6.01,9.96,0,18.41-2.59,25.35-7.76,6.93-5.17,11.67-11.96,14.21-20.37ZM1042.23,77.65c-12.12,0-22.27,3.51-30.47,10.55-8.21,7.03-13.68,16.6-16.41,28.71h85.85c-.78-12.89-4.94-22.66-12.45-29.3-7.52-6.64-16.36-9.96-26.52-9.96Z"/>
      <path class="cls-1" d="M1190.79,208.04c-11.72,0-22.41-3.27-32.08-9.82-9.67-6.54-17.34-15.53-23-26.96-5.67-11.43-8.5-24.47-8.5-39.12s2.73-27.74,8.2-39.27c5.47-11.52,12.99-20.61,22.56-27.25,9.57-6.64,20.51-9.96,32.82-9.96,10.94,0,19.87,2.01,26.81,6.01,6.93,4.01,12.26,9.52,15.97,16.55,3.71,7.03,6.3,15.14,7.77,24.32,1.47,9.18,2.2,19.05,2.2,29.59,0,7.42-.78,15.48-2.35,24.17-1.57,8.7-4.25,16.99-8.06,24.91-3.81,7.91-9.13,14.36-15.97,19.34-6.84,4.98-15.63,7.47-26.37,7.47ZM1196.65,185.77c9.96,0,18.21-2.44,24.76-7.33,6.54-4.88,11.38-11.38,14.51-19.49,3.12-8.1,4.69-17.04,4.69-26.81,0-10.74-1.61-20.17-4.84-28.28-3.22-8.1-8.11-14.45-14.65-19.05-6.55-4.59-14.7-6.89-24.47-6.89-14.65,0-25.98,5.13-33.99,15.39-8.01,10.26-12.01,23.2-12.01,38.82,0,10.35,2,19.59,6.01,27.69,4,8.11,9.47,14.46,16.41,19.05,6.93,4.59,14.8,6.89,23.59,6.89ZM1240.6,0h23.44v205.11h-21.39c-.39-4.29-.83-9.38-1.32-15.24-.49-5.86-.73-10.55-.73-14.06V0Z"/>
    </g>
  </g>
</svg>